<svg xmlns="http://www.w3.org/2000/svg" viewBox="0 0 278.09 52.93"><defs><style>.cls-1{fill:#fff;}.cls-2{fill:#ee4036;}.cls-3{fill:#90278e;}.cls-4{fill:#1b75bb;}.cls-5{fill:#009345;}.cls-6{fill:#faaf40;}</style></defs><g id="Layer_2" data-name="Layer 2"><g id="Layer_1-2" data-name="Layer 1"><path class="cls-1" d="M65.33,14.68,68.2,27.1l.62,3.45.62-3.38,2.45-12.49h4.78l2.58,12.41.66,3.46.66-3.32,2.89-12.55h4.61L82,36.36H77.64L75,23.68l-.76-4.19-.77,4.19L70.88,36.36H66.67L60.53,14.68Z"/><path class="cls-1" d="M96.14,26.61a6.57,6.57,0,0,0,1.67-.37,1.25,1.25,0,0,0,.9-1.19A1.41,1.41,0,0,0,98,23.69a4.36,4.36,0,0,0-2-.38,2.65,2.65,0,0,0-2.13.74,3,3,0,0,0-.6,1.47h-4a6.1,6.1,0,0,1,1.18-3.46q1.66-2.11,5.73-2.11a10.28,10.28,0,0,1,4.69,1,4,4,0,0,1,2.06,3.94v7.35c0,.51,0,1.13,0,1.86a2.22,2.22,0,0,0,.26,1.11,1.46,1.46,0,0,0,.61.49v.62H99.21a5.57,5.57,0,0,1-.26-.91c0-.29-.09-.61-.12-1a8.74,8.74,0,0,1-2,1.6,6.08,6.08,0,0,1-3.08.78,5.28,5.28,0,0,1-3.61-1.25,4.41,4.41,0,0,1-1.43-3.52A4.58,4.58,0,0,1,91,27.81a10.32,10.32,0,0,1,3.7-1Zm2.56,1.95a4.41,4.41,0,0,1-.81.41,7.53,7.53,0,0,1-1.13.29l-1,.17a6.18,6.18,0,0,0-1.93.58,1.9,1.9,0,0,0-1,1.77,1.86,1.86,0,0,0,.61,1.56,2.33,2.33,0,0,0,1.47.47A4.38,4.38,0,0,0,97.5,33a3.38,3.38,0,0,0,1.2-2.9Z"/><path class="cls-1" d="M110.21,31.24a2.85,2.85,0,0,0,.57,1.59,3.92,3.92,0,0,0,2.9.84,4.49,4.49,0,0,0,2-.37,1.17,1.17,0,0,0,.73-1.1,1.19,1.19,0,0,0-.59-1.08,24.7,24.7,0,0,0-4.38-1.26,9.22,9.22,0,0,1-3.85-1.69,3.69,3.69,0,0,1-1.12-2.88,5,5,0,0,1,1.75-3.82,7,7,0,0,1,4.91-1.6,9,9,0,0,1,4.9,1.2,5.13,5.13,0,0,1,2.18,4.14H116a2.47,2.47,0,0,0-.46-1.28,2.88,2.88,0,0,0-2.36-.85,3.35,3.35,0,0,0-2,.43,1.22,1.22,0,0,0-.59,1,1.1,1.1,0,0,0,.62,1,26.7,26.7,0,0,0,4.38,1.16,8,8,0,0,1,3.75,1.78,4,4,0,0,1,1.24,3,4.84,4.84,0,0,1-1.78,3.89q-1.77,1.52-5.49,1.51t-5.59-1.59a5.21,5.21,0,0,1-1.8-4.07Z"/><path class="cls-1" d="M122.48,23.46v-3h2.24V16h4.14v4.47h2.6v3h-2.6v8.47a2,2,0,0,0,.25,1.23,2.8,2.8,0,0,0,1.53.24h.41l.41,0V36.5l-2,.08c-2,.07-3.33-.28-4.06-1a3.06,3.06,0,0,1-.7-2.22V23.46Z"/><path class="cls-1" d="M145,20.65A6.6,6.6,0,0,1,147.79,23a7.86,7.86,0,0,1,1.28,3.31,20.93,20.93,0,0,1,.14,3.18H137.53a3.86,3.86,0,0,0,1.68,3.38,4.27,4.27,0,0,0,2.31.6,3.57,3.57,0,0,0,2.33-.73,3.66,3.66,0,0,0,.86-1.1H149a5.23,5.23,0,0,1-1.56,2.89,7.77,7.77,0,0,1-6,2.34,8.75,8.75,0,0,1-5.64-2c-1.63-1.32-2.45-3.45-2.45-6.42a8.68,8.68,0,0,1,2.21-6.38,7.69,7.69,0,0,1,5.73-2.23A9.13,9.13,0,0,1,145,20.65Zm-6.27,3.62a4.39,4.39,0,0,0-1.11,2.49h7.22a3.52,3.52,0,0,0-1.12-2.54,3.71,3.71,0,0,0-2.49-.86A3.32,3.32,0,0,0,138.75,24.27Z"/><path class="cls-1" d="M159.05,14.68h4.75l8.6,15.12V14.68h4.22V36.36H172.1L163.27,21V36.36h-4.22Z"/><path class="cls-1" d="M194.32,34.4q-2,2.51-6.16,2.5c-2.75,0-4.81-.83-6.16-2.5a9.29,9.29,0,0,1-2-6,9.33,9.33,0,0,1,2-6c1.35-1.7,3.41-2.54,6.16-2.54s4.81.84,6.16,2.54a9.28,9.28,0,0,1,2,6A9.24,9.24,0,0,1,194.32,34.4ZM191,32.08a6,6,0,0,0,1-3.71,6,6,0,0,0-1-3.71,3.72,3.72,0,0,0-5.65,0,5.94,5.94,0,0,0-1,3.71,6,6,0,0,0,1,3.71,3.7,3.7,0,0,0,5.65,0Z"/><path class="cls-1" d="M207.39,14.71h15.46v3.81h-11v5h9.6v3.76h-9.6v9.09h-4.5Z"/><path class="cls-1" d="M239.24,34.4q-2,2.51-6.16,2.5t-6.16-2.5a9.24,9.24,0,0,1-2-6,9.28,9.28,0,0,1,2-6c1.35-1.7,3.4-2.54,6.16-2.54s4.8.84,6.16,2.54a9.33,9.33,0,0,1,2,6A9.29,9.29,0,0,1,239.24,34.4Zm-3.36-2.32a6,6,0,0,0,1-3.71,6,6,0,0,0-1-3.71,3.3,3.3,0,0,0-2.82-1.3,3.34,3.34,0,0,0-2.83,1.3,6,6,0,0,0-1,3.71,6,6,0,0,0,1,3.71,3.35,3.35,0,0,0,2.83,1.31A3.31,3.31,0,0,0,235.88,32.08Z"/><path class="cls-1" d="M258.05,34.4q-2,2.51-6.16,2.5c-2.75,0-4.81-.83-6.16-2.5a9.29,9.29,0,0,1-2-6,9.33,9.33,0,0,1,2-6c1.35-1.7,3.41-2.54,6.16-2.54s4.81.84,6.16,2.54a9.28,9.28,0,0,1,2,6A9.24,9.24,0,0,1,258.05,34.4Zm-3.35-2.32a6,6,0,0,0,1-3.71,6,6,0,0,0-1-3.71,3.72,3.72,0,0,0-5.65,0,6,6,0,0,0-1,3.71,6,6,0,0,0,1,3.71,3.7,3.7,0,0,0,5.65,0Z"/><path class="cls-1" d="M272,20.59a5,5,0,0,1,1.84,1.77V14.71h4.25V36.36H274V34.14a5.88,5.88,0,0,1-2,2.07,5.72,5.72,0,0,1-2.85.65,6,6,0,0,1-4.73-2.27,8.73,8.73,0,0,1-1.92-5.83,10,10,0,0,1,1.89-6.46A6.15,6.15,0,0,1,269.41,20,5.1,5.1,0,0,1,272,20.59ZM273,32a5.81,5.81,0,0,0,.93-3.42c0-2-.5-3.36-1.49-4.21a3.16,3.16,0,0,0-2.11-.76,2.93,2.93,0,0,0-2.7,1.39,6.35,6.35,0,0,0-.86,3.45,6.41,6.41,0,0,0,.87,3.55,3,3,0,0,0,2.66,1.33A3.08,3.08,0,0,0,273,32Z"/><path class="cls-2" d="M23.39,2.19c-1.06,4.44-2.71,9.24-7,11.41-4,2-8.94,1-13-.27-.92-.27-2,2-1.28,2.22,5.07,1.53,10.59,2.37,15.31-.6,4.46-2.81,6.44-8.46,7.6-13.31.39-1.63-1.38-.34-1.6.55Z"/><path class="cls-3" d="M2.62,21.14c3.59,2.2,7,4.82,8.79,8.77,2.13,4.75-.55,9.92-3.24,13.81-.68,1-.26,2.63.72,1.21,2.86-4.12,5.29-8.7,4.88-13.85-.45-5.57-5.51-9.48-9.88-12.15-.75-.47-2,1.74-1.27,2.21Z"/><path class="cls-4" d="M12.44,45.91c3.62-3.09,7.8-5.83,12.75-5.38,4.72.44,8.39,4.51,11.06,8,.6.79,2-1.29,1.53-2-3.11-4.08-6.94-7.92-12.31-8.41-5-.46-9.74,3-13.34,6.06-.72.62-1,2.76.31,1.68Z"/><path class="cls-5" d="M40,42.61c-1.66-4-3.15-8.68-1.58-12.93S45.07,23.33,49,22c.76-.25,1.62-2.6.55-2.22-5.11,1.78-9.84,4.41-12.29,9.43s-.72,10.71,1.24,15.42c.33.79,1.86-1.15,1.53-2Z"/><path class="cls-6" d="M46.9,16.51c-4.6.37-9.52.23-13.36-2.67S28.82,5.18,28.73.56C28.7-.89,27,.85,27,1.67c.1,4.75.74,10.3,4.46,13.72C35.41,19,41,19.22,46,18.82c.87-.07,1.82-2.37.93-2.31Z"/><path class="cls-2" d="M16.65,10a9.69,9.69,0,0,0-1.81-6C13.13,2,11.3,1.46,10.2,2.41S9.32,5.24,11,7.24A9.69,9.69,0,0,0,16.65,10Z"/><path class="cls-3" d="M9.32,30.68a9.72,9.72,0,0,0-6.24-.12c-2.43,1-3.49,2.59-2.93,3.92s2.41,1.71,4.85.7A9.6,9.6,0,0,0,9.32,30.68Z"/><path class="cls-4" d="M24.1,43a9.66,9.66,0,0,0-2,5.9c.2,2.62,1.37,4.12,2.82,4s2.37-1.78,2.16-4.41A9.65,9.65,0,0,0,24.1,43Z"/><path class="cls-5" d="M40.74,30.61a9.71,9.71,0,0,0,5,3.77c2.55.61,4.34,0,4.68-1.44s-1-2.81-3.52-3.42A9.69,9.69,0,0,0,40.74,30.61Z"/><path class="cls-6" d="M35.38,12A9.62,9.62,0,0,0,40.5,8.41c1.38-2.24,1.31-4.15.07-4.91s-3,0-4.33,2.29A9.59,9.59,0,0,0,35.38,12Z"/></g></g></svg>